<svg xmlns="http://www.w3.org/2000/svg" width="128" height="128" viewBox="0 0 128 128" fill="none">
  <defs>
    <linearGradient id="gold" x1="20" y1="16" x2="104" y2="112" gradientUnits="userSpaceOnUse">
      <stop stop-color="#E6C27A"/>
      <stop offset="0.48" stop-color="#D6A85A"/>
      <stop offset="1" stop-color="#BD8B3C"/>
    </linearGradient>
    <linearGradient id="surface" x1="18" y1="10" x2="108" y2="118" gradientUnits="userSpaceOnUse">
      <stop stop-color="#2A3042"/>
      <stop offset="1" stop-color="#171C2A"/>
    </linearGradient>
    <filter id="shadow" x="-20%" y="-20%" width="140%" height="140%">
      <feDropShadow dx="0" dy="6" stdDeviation="6" flood-color="#000000" flood-opacity="0.22"/>
    </filter>
  </defs>
  <rect x="12" y="12" width="104" height="104" rx="24" fill="url(#surface)" filter="url(#shadow)"/>
  <path d="M24 68C29 42 49 24 75 24c9 0 18 2 25 7-5 2-10 5-14 9-11-6-25-5-35 1-13 7-21 22-19 37 2 16 14 30 29 34 11 3 23 1 32-5l-10-10c-8 4-18 4-26 0-10-6-16-17-16-28 0-1 0-2 0-3h63c-1 7-4 14-8 20" stroke="url(#gold)" stroke-width="8" stroke-linecap="round" stroke-linejoin="round"/>
</svg>