<svg xmlns="http://www.w3.org/2000/svg" width="128" height="128" viewBox="0 0 128 128" fill="none">
  <defs>
    <linearGradient id="gold" x1="20" y1="16" x2="104" y2="112" gradientUnits="userSpaceOnUse">
      <stop stop-color="#E6C27A"/>
      <stop offset="0.48" stop-color="#D6A85A"/>
      <stop offset="1" stop-color="#BD8B3C"/>
    </linearGradient>
    <linearGradient id="surface" x1="18" y1="10" x2="108" y2="118" gradientUnits="userSpaceOnUse">
      <stop stop-color="#2A3042"/>
      <stop offset="1" stop-color="#171C2A"/>
    </linearGradient>
    <filter id="shadow" x="-20%" y="-20%" width="140%" height="140%">
      <feDropShadow dx="0" dy="6" stdDeviation="6" flood-color="#000000" flood-opacity="0.22"/>
    </filter>
  </defs>
  <rect x="12" y="12" width="104" height="104" rx="24" fill="url(#surface)" filter="url(#shadow)"/>
  <path d="M28 46 L28 88 Q28 94 34 94 L94 94 Q100 94 100 88 L100 52 Q100 46 94 46 L64 46 L58 38 L34 38 Q28 38 28 44 Z" fill="#1D2333" stroke="url(#gold)" stroke-width="2.5"/>
  <rect x="40" y="58" width="32" height="5" rx="2.5" fill="url(#gold)" opacity="0.8"/>
  <rect x="40" y="68" width="24" height="5" rx="2.5" fill="url(#gold)" opacity="0.5"/>
  <rect x="40" y="78" width="28" height="5" rx="2.5" fill="url(#gold)" opacity="0.35"/>
</svg>
