<svg xmlns="http://www.w3.org/2000/svg" width="128" height="128" viewBox="0 0 128 128" fill="none">
  <defs>
    <linearGradient id="gold" x1="20" y1="16" x2="104" y2="112" gradientUnits="userSpaceOnUse">
      <stop stop-color="#E6C27A"/>
      <stop offset="0.48" stop-color="#D6A85A"/>
      <stop offset="1" stop-color="#BD8B3C"/>
    </linearGradient>
    <linearGradient id="surface" x1="18" y1="10" x2="108" y2="118" gradientUnits="userSpaceOnUse">
      <stop stop-color="#2A3042"/>
      <stop offset="1" stop-color="#171C2A"/>
    </linearGradient>
    <filter id="shadow" x="-20%" y="-20%" width="140%" height="140%">
      <feDropShadow dx="0" dy="6" stdDeviation="6" flood-color="#000000" flood-opacity="0.22"/>
    </filter>
  </defs>
  <rect x="12" y="12" width="104" height="104" rx="24" fill="url(#surface)" filter="url(#shadow)"/>
  <path d="M24 44a12 12 0 0 1 12-12h18l8 10h30a12 12 0 0 1 12 12v34a12 12 0 0 1-12 12H36a12 12 0 0 1-12-12V44z" fill="url(#gold)"/><rect x="42" y="56" width="44" height="6" rx="3" fill="#171C2A" fill-opacity="0.35"/><rect x="42" y="68" width="34" height="6" rx="3" fill="#171C2A" fill-opacity="0.35"/>
</svg>